<svg width="861" height="575" viewBox="0 0 861 575" fill="none" xmlns="http://www.w3.org/2000/svg">
<path fill-rule="evenodd" clip-rule="evenodd" d="M704.078 525.75C868.018 437.664 915.032 159.863 734.1 105.489C553.165 51.515 508.634 220.898 426.896 220.869C344.568 220.898 314.238 133.734 205.57 133.46C96.5917 133.734 -33.7947 218.553 9.37829 401.98C52.8526 585.215 539.861 614.434 704.078 525.75Z" fill="#451CC0"/>
<mask id="mask0_6_480" style="mask-type:alpha" maskUnits="userSpaceOnUse" x="0" y="94" width="851" height="481">
<path fill-rule="evenodd" clip-rule="evenodd" d="M704.078 525.75C868.018 437.664 915.032 159.863 734.1 105.489C553.165 51.515 508.634 220.898 426.896 220.869C344.568 220.898 314.238 133.734 205.57 133.46C96.5917 133.734 -33.7947 218.553 9.37829 401.98C52.8526 585.215 539.861 614.434 704.078 525.75Z" fill="white"/>
</mask>
<g mask="url(#mask0_6_480)">
<path fill-rule="evenodd" clip-rule="evenodd" d="M97.3503 502.674C117.395 502.674 182.493 437.429 176.246 394.987C166.65 327.074 114.033 431.74 95.2558 417.364C76.7018 403.059 171.861 342.333 144.129 308.977C116.12 275.806 64.3283 405.731 83.3865 335.549C102.149 266.223 95.3036 213.328 58.9499 219.47C22.4003 225.438 23.0433 298.956 53.3643 341.143C83.4923 382.954 0.343063 315.528 -12.9638 351.632C-27.2113 388.543 59.8062 399.89 51.2698 425.055C42.1709 449.653 7.70714 396.911 -17.153 419.461C-42.2082 441.653 77.1839 502.674 97.3503 502.674Z" fill="#E2EAF5"/>
</g>
<path fill-rule="evenodd" clip-rule="evenodd" d="M71 484.784C132.156 429.717 190.601 414.008 246.336 437.658C365.818 488.578 441.911 576.064 605.824 495.559C673.741 462.003 733.133 449.287 784 457.412C762.105 484.812 735.27 508.225 704.247 524.858C569.37 597.539 216.696 590.839 71 484.784L71 484.784Z" fill="#3A199B"/>
<path fill-rule="evenodd" clip-rule="evenodd" d="M458.039 496.787C457.431 445.315 467.944 371.664 483.789 383.209C511.549 402.918 516.41 458.048 480.313 530.486C474.955 541.306 470.663 545.074 467.331 543.738C465.507 544.683 462.301 543.128 457.367 538.201C420.796 501.454 412.093 466.105 423.991 447.029C430.105 438.025 446.732 467.885 458.039 496.787Z" fill="#3E1BA8"/>
<path fill-rule="evenodd" clip-rule="evenodd" d="M647.607 547C440.009 414.679 615.828 371.283 628.743 343.968C642.142 316.244 559.98 253.059 586.824 216.288C613.46 181.518 684.249 233.051 684.636 191.869C684.249 150.589 620.232 139.253 598.701 68.375C579.19 -2.5083 713.265 -37.8412 746.817 60.7003C779.469 158.571 726.086 200.443 767.078 205.823C808.356 212.986 854.983 192.234 860 237.219C864.071 282.978 746.367 310.134 746.817 352.341C746.367 393.12 896.62 491.736 647.607 547Z" fill="#7556D4"/>
<path fill-rule="evenodd" clip-rule="evenodd" d="M358.08 113.859C371.699 163.393 420.714 184.691 440.599 169.161C460.19 152.992 449.665 109.25 430.197 85.5168C410.188 62.1892 344.066 63.7234 358.08 113.859Z" fill="#451CC0"/>
<path d="M614.916 447.984C619.267 440.731 626.949 432.002 636.71 423.766C655.148 408.207 674.019 400.297 678.86 406.098C683.701 411.9 672.678 429.217 654.24 444.776C639.289 457.393 624.053 464.98 616.244 464.305C616.156 485.951 608.094 505.697 589.897 525L587.363 522.598C605.054 503.831 612.757 484.832 612.757 463.949C612.757 463.662 612.756 463.375 612.753 463.087C612.624 462.986 612.501 462.878 612.385 462.765C608.527 469.116 588.628 464.995 567.718 453.475C546.657 441.871 532.545 427.155 536.197 420.605C539.85 414.055 559.885 418.152 580.946 429.756C596.017 438.059 607.53 447.957 611.521 455.315C611.693 454.726 611.903 454.115 612.149 453.484C611.513 447.859 610.38 442.007 608.77 435.762C606.742 427.895 604.507 421.048 599.922 408.043C594.685 393.194 593 388.156 590.99 380.731C590.844 380.194 590.703 379.661 590.565 379.131C586.264 385.049 566.67 380.878 546.096 369.542C525.035 357.939 510.923 343.222 514.576 336.673C518.228 330.123 538.263 334.22 559.324 345.824C572.722 353.205 583.308 361.846 588.297 368.844C587.362 363.533 586.887 358.537 586.887 353.684C586.887 341.296 588.617 329.073 591.954 315.974C593.42 310.219 594.973 304.955 597.108 298.523C590.023 299.599 576.96 285.569 566.823 265.578C555.992 244.219 552.603 224.143 559.254 220.738C565.905 217.333 580.077 231.888 590.908 253.247C597.013 265.287 600.754 276.919 601.665 285.387C602.101 284.163 602.557 282.894 603.032 281.574C606.719 271.34 607.313 269.676 608.795 265.332C612.321 254.996 614.894 246.07 616.57 237.751C610.204 234.107 605.37 216.225 605.37 194.715C605.37 170.572 611.459 151 618.971 151C626.482 151 632.571 170.572 632.571 194.715C632.571 217.724 627.041 236.581 620.019 238.301C618.31 246.824 615.686 255.937 612.094 266.464C610.603 270.835 610.007 272.505 606.312 282.763C606.112 283.319 605.915 283.866 605.722 284.405C611.224 278.457 619.494 271.884 629.386 265.971C650.014 253.639 669.881 248.848 673.759 255.269C677.637 261.691 664.058 276.893 643.43 289.225C624.089 300.787 605.418 305.72 599.966 300.999C598.085 306.744 596.67 311.59 595.333 316.839C592.064 329.671 590.374 341.609 590.374 353.684C590.374 358.014 590.772 362.482 591.558 367.222C595.378 359.44 603.857 349.311 615.088 339.834C633.526 324.275 652.398 316.364 657.238 322.166C662.079 327.968 651.056 345.285 632.618 360.844C617.591 373.524 602.277 381.124 594.504 380.362C596.42 387.38 598.136 392.488 603.209 406.877C607.828 419.975 610.086 426.892 612.147 434.887C613.317 439.426 614.242 443.772 614.916 447.984Z" fill="#3E1BA8"/>
</svg>
