<svg width="422" height="454" viewBox="0 0 422 454" fill="none" xmlns="http://www.w3.org/2000/svg">
<path fill-rule="evenodd" clip-rule="evenodd" d="M62.5936 347.247C-48.4775 386.636 1.60177 454 108.908 454C216.214 454 405.556 431.561 421.322 389.404C437.088 347.247 173.665 307.857 62.5936 347.247Z" fill="#35188E"/>
<rect x="80" y="241" width="84" height="150" fill="#A7A7EE"/>
<rect x="80" y="241" width="84" height="150" fill="url(#paint0_linear_6_491)"/>
<path fill-rule="evenodd" clip-rule="evenodd" d="M164 183C164 155.386 186.386 133 214 133H319C346.614 133 369 155.386 369 183V241H164V183Z" fill="#403F9F"/>
<path fill-rule="evenodd" clip-rule="evenodd" d="M164 183C164 155.386 186.386 133 214 133H319C346.614 133 369 155.386 369 183V241H164V183Z" fill="url(#paint1_linear_6_491)"/>
<path fill-rule="evenodd" clip-rule="evenodd" d="M218.531 214C234.953 183.791 248.588 148 236.199 148C214.953 148 201.445 159.159 194.688 182.946C192.364 191.13 190.499 199.197 189 206.382C189 206.382 195.53 210.376 203.62 211.931C211.71 213.486 218.531 214 218.531 214Z" fill="#F2F5F9"/>
<rect x="107" y="287" width="90" height="104" fill="#A7A7EE"/>
<rect x="107" y="287" width="90" height="104" fill="url(#paint2_linear_6_491)"/>
<path d="M52 268.5C52 253.312 64.3122 241 79.5 241C94.6878 241 107 253.312 107 268.5V391H62C56.4772 391 52 386.523 52 381V268.5Z" fill="#403F9F"/>
<path d="M52 268.5C52 253.312 64.3122 241 79.5 241C94.6878 241 107 253.312 107 268.5V391H62C56.4772 391 52 386.523 52 381V268.5Z" fill="url(#paint3_linear_6_491)"/>
<path fill-rule="evenodd" clip-rule="evenodd" d="M70.0435 406.371C58.5653 401.614 68.6262 385.488 80.1304 383.726C91.7168 381.792 99.2448 379.705 99.0435 371.774C99.2448 363.956 120.795 370.065 121.109 373.661C120.795 377.567 125.757 390.862 121.109 393.161C115.833 395.344 81.639 410.712 70.0435 406.371Z" fill="#1F1845"/>
<path fill-rule="evenodd" clip-rule="evenodd" d="M70.0435 406.371C58.5653 401.614 68.6262 385.488 80.1304 383.726C91.7168 381.792 99.2448 379.705 99.0435 371.774C99.2448 363.956 120.795 370.065 121.109 373.661C120.795 377.567 125.757 390.862 121.109 393.161C115.833 395.344 81.639 410.712 70.0435 406.371Z" fill="url(#paint4_linear_6_491)"/>
<path fill-rule="evenodd" clip-rule="evenodd" d="M142.25 372C145.193 373.285 149.056 373.932 154.125 373.899C157.833 373.932 161.01 373.536 163.5 372.633C163.703 378.263 164.639 382.33 171 389.089C179.037 397.115 177.82 418.754 163.5 422C149.419 424.231 139.572 397.115 141 386.557C142.628 380.309 142.647 375.57 142.25 372Z" fill="#1F1845"/>
<path fill-rule="evenodd" clip-rule="evenodd" d="M142.25 372C145.193 373.285 149.056 373.932 154.125 373.899C157.833 373.932 161.01 373.536 163.5 372.633C163.703 378.263 164.639 382.33 171 389.089C179.037 397.115 177.82 418.754 163.5 422C149.419 424.231 139.572 397.115 141 386.557C142.628 380.309 142.647 375.57 142.25 372Z" fill="url(#paint5_linear_6_491)"/>
<path fill-rule="evenodd" clip-rule="evenodd" d="M186.34 248.03C158.649 248.03 78.2461 246.498 68.1514 265.183C58.0566 283.868 86.7641 368.29 86.7641 372.135C86.7641 375.98 119.742 374.843 125.399 374.843C131.057 374.843 108.142 297.507 111.154 293.114C114.166 288.721 208.562 295.671 215.65 282.298C222.737 268.925 214.03 248.03 186.34 248.03Z" fill="#1F1845"/>
<path fill-rule="evenodd" clip-rule="evenodd" d="M186.34 248.03C158.649 248.03 78.2461 246.498 68.1514 265.183C58.0566 283.868 86.7641 368.29 86.7641 372.135C86.7641 375.98 119.742 374.843 125.399 374.843C131.057 374.843 108.142 297.507 111.154 293.114C114.166 288.721 208.562 295.671 215.65 282.298C222.737 268.925 214.03 248.03 186.34 248.03Z" fill="url(#paint6_linear_6_491)"/>
<path fill-rule="evenodd" clip-rule="evenodd" d="M242.618 253.321C214.885 253.321 164.043 244.005 153.933 262.699C143.823 281.393 136 367.538 136 371.385C136 375.232 166.653 378 172.319 378C177.985 378 189.682 294.698 198.374 291.514C207.066 288.33 271.151 304.893 278.249 291.514C285.347 278.134 270.35 253.321 242.618 253.321Z" fill="#1F1845"/>
<path fill-rule="evenodd" clip-rule="evenodd" d="M254.127 150H278.724C301.636 150 297.751 173.856 297.751 196.834C297.751 219.811 286.865 253 286.865 253L203.029 252.187C203.029 252.187 202.727 218.132 205.547 195.926C208.367 173.721 223.787 150 254.127 150Z" fill="#F2F5F9"/>
<path fill-rule="evenodd" clip-rule="evenodd" d="M184.04 231.924C184.902 229.937 186.42 219.552 189.25 206C193.562 208.634 198.387 210.464 203.728 211.49C203.819 211.507 203.909 211.524 204 211.542C203.504 218.756 203.189 226.653 203.055 235.233C197.554 236.312 192.714 237.481 190.595 238.587C188.921 239.462 182.99 244.4 180.691 247.976L177.091 233.248C181.075 232.951 183.748 232.597 184.04 231.924Z" fill="#D38E6B"/>
<path fill-rule="evenodd" clip-rule="evenodd" d="M184.04 231.924C184.902 229.937 186.42 219.552 189.25 206C193.562 208.634 198.387 210.464 203.728 211.49C203.819 211.507 203.909 211.524 204 211.542C203.504 218.756 203.189 226.653 203.055 235.233C197.554 236.312 192.714 237.481 190.595 238.587C188.921 239.462 182.99 244.4 180.691 247.976L177.091 233.248C181.075 232.951 183.748 232.597 184.04 231.924Z" fill="url(#paint7_linear_6_491)"/>
<path fill-rule="evenodd" clip-rule="evenodd" d="M184.04 231.924C184.902 229.937 186.42 219.552 189.25 206C193.562 208.634 198.387 210.464 203.728 211.49C203.819 211.507 203.909 211.524 204 211.542C203.504 218.756 203.189 226.653 203.055 235.233C197.554 236.312 192.714 237.481 190.595 238.587C188.921 239.462 182.99 244.4 180.691 247.976L177.091 233.248C181.075 232.951 183.748 232.597 184.04 231.924Z" fill="url(#paint8_linear_6_491)"/>
<path fill-rule="evenodd" clip-rule="evenodd" d="M78.7425 183H161.212L180.059 260H91.0714C90.2025 260 89.4462 259.408 89.2403 258.567L72.6389 190.744C71.8167 187.385 73.8829 183.998 77.2538 183.178C77.7411 183.06 78.2409 183 78.7425 183Z" fill="#D6DFEA"/>
<ellipse cx="123.517" cy="221.813" rx="5.65427" ry="5.63415" fill="#F2F5F9"/>
<path fill-rule="evenodd" clip-rule="evenodd" d="M180.902 250.61H236.288C238.89 250.61 241 252.712 241 255.305C241 257.898 238.89 260 236.288 260H175.662V254.867L158.815 186.041C158.492 184.722 159.304 183.392 160.627 183.07C160.819 183.024 161.015 183 161.212 183C163.056 183 164.661 184.256 165.098 186.041L180.902 250.61Z" fill="#B6C5D9"/>
<path fill-rule="evenodd" clip-rule="evenodd" d="M314 241V160.314C314 145.229 326.312 133 341.5 133C356.688 133 369 145.229 369 160.314V241H314Z" fill="#A7A7EE"/>
<path fill-rule="evenodd" clip-rule="evenodd" d="M314 241V160.314C314 145.229 326.312 133 341.5 133C356.688 133 369 145.229 369 160.314V241H314Z" fill="url(#paint9_linear_6_491)"/>
<path fill-rule="evenodd" clip-rule="evenodd" d="M369 241V381C369 386.523 364.523 391 359 391H223.68V241H369Z" fill="#A7A7EE"/>
<path fill-rule="evenodd" clip-rule="evenodd" d="M369 241V381C369 386.523 364.523 391 359 391H223.68V241H369Z" fill="url(#paint10_linear_6_491)"/>
<path d="M196 268.365C196 253.252 208.252 241 223.365 241C238.479 241 250.731 253.252 250.731 268.365V391H196V268.365Z" fill="#403F9F"/>
<path d="M196 268.365C196 253.252 208.252 241 223.365 241C238.479 241 250.731 253.252 250.731 268.365V391H196V268.365Z" fill="url(#paint11_linear_6_491)"/>
<path fill-rule="evenodd" clip-rule="evenodd" d="M203.169 251.356H181.599L181 248.887C183.305 245.273 189.253 240.282 190.932 239.399C197.092 236.157 226.181 232.386 227.871 231.844C244.88 230.053 252.69 228.42 287.35 226.807C287.354 217.597 268.002 150.024 278.585 150C288.863 150.024 315.558 150.096 318.654 181.478C321.751 212.861 328.278 252.715 306.132 251.99C292.646 252.216 255.539 243.689 235.926 241.283H224.585C215.783 241.283 208.165 245.208 203.169 251.356Z" fill="#D38E6B"/>
<path fill-rule="evenodd" clip-rule="evenodd" d="M203.169 251.356H181.599L181 248.887C183.305 245.273 189.253 240.282 190.932 239.399C197.092 236.157 226.181 232.386 227.871 231.844C244.88 230.053 252.69 228.42 287.35 226.807C287.354 217.597 268.002 150.024 278.585 150C288.863 150.024 315.558 150.096 318.654 181.478C321.751 212.861 328.278 252.715 306.132 251.99C292.646 252.216 255.539 243.689 235.926 241.283H224.585C215.783 241.283 208.165 245.208 203.169 251.356Z" fill="url(#paint12_linear_6_491)"/>
<path fill-rule="evenodd" clip-rule="evenodd" d="M284.959 213.916C280.139 191.681 269.739 150.019 278.226 150C288.702 150.024 315.912 150.095 319.069 181.351C320.029 190.859 321.312 201.148 321.998 210.843C322.105 212.355 316.707 215.079 303.451 215.834C290.194 216.588 284.959 213.916 284.959 213.916Z" fill="#F2F5F9"/>
<path fill-rule="evenodd" clip-rule="evenodd" d="M235.529 101H276L273.471 149.927C273.226 161.167 263.849 170 252.603 170C241.711 170 233 161.412 233 150.555C233 150.529 233.007 150.238 233 149.927L235.529 101Z" fill="#D38E6B"/>
<path fill-rule="evenodd" clip-rule="evenodd" d="M235.529 101H276L273.471 149.927C273.226 161.167 263.849 170 252.603 170C241.711 170 233 161.412 233 150.555C233 150.529 233.007 150.238 233 149.927L235.529 101Z" fill="url(#paint13_linear_6_491)"/>
<path fill-rule="evenodd" clip-rule="evenodd" d="M274.735 125.464C266.404 137.04 251.85 144.909 242.485 144.909C240.115 144.909 236.965 144.224 233.632 143.027L235.529 101H276L274.735 125.464Z" fill="url(#paint14_linear_6_491)"/>
<path fill-rule="evenodd" clip-rule="evenodd" d="M237.222 28.9321C258.581 28.9321 275.897 46.2502 275.897 67.6131V100.319C275.897 121.682 250.567 139 237.222 139C223.876 139 198.546 121.682 198.546 100.319C198.546 100.319 200.433 85.5186 200.433 84.3979C200.433 83.2772 198.546 67.6131 198.546 67.6131C198.546 46.2502 215.862 28.9321 237.222 28.9321Z" fill="#D38E6B"/>
<path fill-rule="evenodd" clip-rule="evenodd" d="M237.222 28.9321C258.581 28.9321 275.897 46.2502 275.897 67.6131V100.319C275.897 121.682 250.567 139 237.222 139C223.876 139 198.546 121.682 198.546 100.319C198.546 100.319 200.433 85.5186 200.433 84.3979C200.433 83.2772 198.546 67.6131 198.546 67.6131C198.546 46.2502 215.862 28.9321 237.222 28.9321Z" fill="url(#paint15_linear_6_491)"/>
<path fill-rule="evenodd" clip-rule="evenodd" d="M275.784 115.723L276.526 101.262L275.897 90.4875C269.521 86.9456 265.206 80.1419 265.206 72.3303C265.206 70.5876 265.421 68.8951 265.825 67.2777C265.516 67.2916 265.205 67.2986 264.892 67.2986C254.367 67.2986 245.7 59.3415 244.577 49.1139C241.415 50.6889 237.85 51.5747 234.077 51.5747C228.47 51.5747 223.32 49.6176 219.273 46.3493C217.494 47.2767 215.47 47.8009 213.325 47.8009C210.449 47.8009 207.793 46.8592 205.649 45.2674C202.481 49.7365 200.238 54.9075 199.199 60.5014C194.182 56.2328 191 49.8727 191 42.7692C191 30.6723 200.229 20.7312 212.028 19.6041C215.409 10.7174 224.006 4.40271 234.077 4.40271C238.284 4.40271 242.233 5.50423 245.652 7.4346C250.734 2.81536 257.484 0 264.892 0C280.088 0 292.517 11.8474 293.449 26.8106C304.572 28.8545 313 38.6012 313 50.3167C313 56.8858 310.35 62.8359 306.061 67.1561C306.486 68.8102 306.711 70.5439 306.711 72.3303C306.711 79.2207 303.354 85.3268 298.187 89.102C298.416 90.3953 298.536 91.7267 298.536 93.086C298.536 105.419 288.066 115.448 275.784 115.723Z" fill="#1F1845"/>
<path fill-rule="evenodd" clip-rule="evenodd" d="M275.784 115.723L276.526 101.262L275.897 90.4875C269.521 86.9456 265.206 80.1419 265.206 72.3303C265.206 70.5876 265.421 68.8951 265.825 67.2777C265.516 67.2916 265.205 67.2986 264.892 67.2986C254.367 67.2986 245.7 59.3415 244.577 49.1139C241.415 50.6889 237.85 51.5747 234.077 51.5747C228.47 51.5747 223.32 49.6176 219.273 46.3493C217.494 47.2767 215.47 47.8009 213.325 47.8009C210.449 47.8009 207.793 46.8592 205.649 45.2674C202.481 49.7365 200.238 54.9075 199.199 60.5014C194.182 56.2328 191 49.8727 191 42.7692C191 30.6723 200.229 20.7312 212.028 19.6041C215.409 10.7174 224.006 4.40271 234.077 4.40271C238.284 4.40271 242.233 5.50423 245.652 7.4346C250.734 2.81536 257.484 0 264.892 0C280.088 0 292.517 11.8474 293.449 26.8106C304.572 28.8545 313 38.6012 313 50.3167C313 56.8858 310.35 62.8359 306.061 67.1561C306.486 68.8102 306.711 70.5439 306.711 72.3303C306.711 79.2207 303.354 85.3268 298.187 89.102C298.416 90.3953 298.536 91.7267 298.536 93.086C298.536 105.419 288.066 115.448 275.784 115.723Z" fill="url(#paint16_linear_6_491)"/>
<path fill-rule="evenodd" clip-rule="evenodd" d="M271.495 105.665C263.706 105.531 264.2 77.2304 271.495 77.362C279.406 77.4962 285.459 83.9393 285.33 91.1991C285.186 99.5692 278.912 105.797 271.495 105.665Z" fill="#D38E6B"/>
<ellipse cx="273.382" cy="91.8281" rx="5.03093" ry="5.03167" fill="url(#paint17_linear_6_491)"/>
<path fill-rule="evenodd" clip-rule="evenodd" d="M266.688 79.8656C266.104 79.8737 265.131 79.8778 264.892 79.8778C254.367 79.8778 245.7 71.9207 244.577 61.6931C241.415 63.268 237.85 64.1538 234.077 64.1538C228.47 64.1538 223.32 62.1968 219.273 58.9284C217.494 59.8558 215.47 60.3801 213.325 60.3801C210.449 60.3801 207.793 59.4384 205.649 57.8466C202.482 62.3145 200.239 67.484 199.199 73.0763C199.005 71.4329 198.787 69.6118 198.546 67.6131C198.546 59.2886 201.176 51.5782 205.649 45.2674C207.793 46.8592 210.449 47.8009 213.325 47.8009C215.47 47.8009 217.494 47.2767 219.273 46.3493C223.32 49.6176 228.47 51.5747 234.077 51.5747C237.85 51.5747 241.415 50.6889 244.577 49.1139C245.7 59.3415 254.367 67.2986 264.892 67.2986C265.205 67.2986 265.516 67.2916 265.825 67.2777C265.421 68.8951 265.688 70.6625 265.825 72.4038C266.445 80.2666 266.868 79.8631 266.688 79.8656Z" fill="url(#paint18_linear_6_491)"/>
<path d="M203 236C203.194 220.446 203.861 207.112 205 196" stroke="white" stroke-width="2" stroke-linecap="round" stroke-linejoin="round"/>
<path d="M287 225.969C287.002 222.377 284.028 209.886 281.041 196" stroke="white" stroke-width="2" stroke-linecap="round" stroke-linejoin="round"/>
<defs>
<linearGradient id="paint0_linear_6_491" x1="80" y1="241" x2="80" y2="391" gradientUnits="userSpaceOnUse">
<stop stop-color="#A7A7EE" stop-opacity="0.01"/>
<stop offset="1" stop-color="#403F9F" stop-opacity="0.3"/>
</linearGradient>
<linearGradient id="paint1_linear_6_491" x1="164" y1="133" x2="164" y2="241" gradientUnits="userSpaceOnUse">
<stop stop-color="#403F9F" stop-opacity="0.01"/>
<stop offset="1" stop-opacity="0.2"/>
</linearGradient>
<linearGradient id="paint2_linear_6_491" x1="107" y1="287" x2="107" y2="391" gradientUnits="userSpaceOnUse">
<stop stop-color="#A7A7EE" stop-opacity="0.01"/>
<stop offset="1" stop-color="#403F9F" stop-opacity="0.3"/>
</linearGradient>
<linearGradient id="paint3_linear_6_491" x1="52" y1="241" x2="52" y2="391" gradientUnits="userSpaceOnUse">
<stop stop-color="#403F9F" stop-opacity="0.01"/>
<stop offset="1" stop-opacity="0.2"/>
</linearGradient>
<linearGradient id="paint4_linear_6_491" x1="65" y1="368" x2="65" y2="407" gradientUnits="userSpaceOnUse">
<stop stop-color="#403F9F" stop-opacity="0.01"/>
<stop offset="1" stop-opacity="0.1"/>
</linearGradient>
<linearGradient id="paint5_linear_6_491" x1="141" y1="372" x2="141" y2="422" gradientUnits="userSpaceOnUse">
<stop stop-color="#403F9F" stop-opacity="0.01"/>
<stop offset="1" stop-opacity="0.1"/>
</linearGradient>
<linearGradient id="paint6_linear_6_491" x1="158.436" y1="207.426" x2="34.6255" y2="264.359" gradientUnits="userSpaceOnUse">
<stop stop-opacity="0.5"/>
<stop offset="1" stop-color="#1F1845"/>
</linearGradient>
<linearGradient id="paint7_linear_6_491" x1="133" y1="206" x2="133" y2="256" gradientUnits="userSpaceOnUse">
<stop stop-color="#C74D75" stop-opacity="0.01"/>
<stop offset="1" stop-color="#AF3B6E" stop-opacity="0.05"/>
</linearGradient>
<linearGradient id="paint8_linear_6_491" x1="239.5" y1="243.5" x2="219.92" y2="187.894" gradientUnits="userSpaceOnUse">
<stop stop-opacity="0.5"/>
<stop offset="1" stop-color="#FF6663" stop-opacity="0.01"/>
</linearGradient>
<linearGradient id="paint9_linear_6_491" x1="314" y1="133" x2="314" y2="241" gradientUnits="userSpaceOnUse">
<stop stop-color="#A7A7EE" stop-opacity="0.01"/>
<stop offset="1" stop-color="#403F9F" stop-opacity="0.3"/>
</linearGradient>
<linearGradient id="paint10_linear_6_491" x1="223.68" y1="241" x2="223.68" y2="391" gradientUnits="userSpaceOnUse">
<stop stop-color="#A7A7EE" stop-opacity="0.01"/>
<stop offset="1" stop-color="#403F9F" stop-opacity="0.3"/>
</linearGradient>
<linearGradient id="paint11_linear_6_491" x1="196" y1="241" x2="196" y2="391" gradientUnits="userSpaceOnUse">
<stop stop-color="#403F9F" stop-opacity="0.01"/>
<stop offset="1" stop-opacity="0.2"/>
</linearGradient>
<linearGradient id="paint12_linear_6_491" x1="181" y1="150" x2="181" y2="252" gradientUnits="userSpaceOnUse">
<stop stop-color="#C74D75" stop-opacity="0.01"/>
<stop offset="1" stop-color="#AF3B6E" stop-opacity="0.05"/>
</linearGradient>
<linearGradient id="paint13_linear_6_491" x1="233" y1="101" x2="233" y2="170" gradientUnits="userSpaceOnUse">
<stop stop-color="#C74D75" stop-opacity="0.01"/>
<stop offset="1" stop-color="#AF3B6E" stop-opacity="0.1"/>
</linearGradient>
<linearGradient id="paint14_linear_6_491" x1="251.439" y1="159.864" x2="295.053" y2="124.49" gradientUnits="userSpaceOnUse">
<stop stop-opacity="0.1"/>
<stop offset="1" stop-color="#FF6663" stop-opacity="0.01"/>
</linearGradient>
<linearGradient id="paint15_linear_6_491" x1="199.557" y1="31.8069" x2="199.557" y2="139" gradientUnits="userSpaceOnUse">
<stop stop-color="#C74D75" stop-opacity="0.01"/>
<stop offset="1" stop-color="#AF3B6E" stop-opacity="0.05"/>
</linearGradient>
<linearGradient id="paint16_linear_6_491" x1="191" y1="0" x2="191" y2="115.723" gradientUnits="userSpaceOnUse">
<stop stop-color="#1F1845" stop-opacity="0.01"/>
<stop offset="1" stop-opacity="0.2"/>
</linearGradient>
<linearGradient id="paint17_linear_6_491" x1="273.382" y1="81.7647" x2="263.318" y2="91.8266" gradientUnits="userSpaceOnUse">
<stop stop-opacity="0.2"/>
<stop offset="1" stop-color="#FF6663" stop-opacity="0.01"/>
</linearGradient>
<linearGradient id="paint18_linear_6_491" x1="215.932" y1="42.1378" x2="199.791" y2="80.4029" gradientUnits="userSpaceOnUse">
<stop stop-opacity="0.1"/>
<stop offset="1" stop-color="#FF6663" stop-opacity="0.01"/>
</linearGradient>
</defs>
</svg>
